<svg width="259" height="40" viewBox="0 0 259 40" fill="none" xmlns="http://www.w3.org/2000/svg">
<path fill-rule="evenodd" clip-rule="evenodd" d="M216.095 8.2247C213.843 8.2247 212.034 6.43355 212.034 4.13063C212.034 1.86427 213.88 0 216.169 0C218.458 0 220.341 1.79116 220.341 4.05752C220.341 6.36044 218.458 8.2247 216.095 8.2247ZM132.177 32.2774V4.27686H139.007V11.9532C139.007 11.9532 142.034 9.39445 145.985 9.39445C152.667 9.39445 156.617 14.9872 156.617 21.0918C156.617 27.3426 152.593 32.8257 146.206 32.8257C143.216 32.8257 141 31.985 138.896 29.9379V32.2774H132.177ZM117.519 32.8258C110.542 32.8258 105.742 28.6221 105.742 21.0919C105.742 14.2928 110.652 9.39453 117.335 9.39453C123.87 9.39453 128.485 13.6714 128.485 21.6768L128.486 21.8713C128.488 21.9844 128.491 22.0872 128.494 22.1853V22.1854V22.1855V22.1857V22.1858V22.1859V22.186V22.1861V22.1863C128.501 22.4609 128.508 22.6996 128.485 23.0293H112.535C113.126 25.6977 115.267 26.9771 117.852 26.9771C119.975 26.9771 121.409 25.5798 122.556 24.1333L122.762 23.87C122.762 23.87 126.11 25.7812 127.681 26.7156L128.115 26.9771C126.122 30.4863 122.282 32.8258 117.519 32.8258ZM75.5046 32.2774L66.8654 9.83309H74.1017L78.6059 22.2615L82.7409 9.83309H88.242L92.5985 22.3346L97.0658 9.83309H104.191L95.6628 32.2774H89.7188L85.5099 20.2145L81.4487 32.2774H75.5046ZM117.261 15.0969C119.402 15.0969 120.584 16.1204 121.396 18.2771H112.794C113.643 16.1936 114.935 15.0969 117.261 15.0969ZM144.434 15.6819C147.535 15.6819 149.787 18.0945 149.787 20.9457C149.787 24.1259 148.089 26.7944 144.729 26.7944C141.148 26.7944 138.822 24.5646 138.822 21.0919C138.822 17.8386 141.222 15.6819 144.434 15.6819ZM171.459 33.0451C164.518 33.0451 159.202 27.4158 159.202 21.165C159.202 14.439 164.629 9.39453 171.607 9.39453C178.474 9.39453 183.827 14.2928 183.827 21.0553C183.827 27.891 178.843 33.0451 171.459 33.0451ZM171.57 15.7915C174.782 15.7915 176.997 18.0579 176.997 20.9457C176.997 24.4549 174.93 26.6116 171.533 26.6116C168.395 26.6116 166.069 24.2721 166.069 21.2746C166.069 18.2041 168.247 15.7915 171.57 15.7915ZM194.94 32.2773L185.452 9.83301H193.131L198.078 22.956L202.73 9.83301H209.966L201.069 32.2773H194.94ZM219.566 32.2773V9.83301H212.699V32.2773H219.566ZM223.258 21.165C223.258 27.4158 228.574 33.0451 235.515 33.0451C242.899 33.0451 247.883 27.891 247.883 21.0553C247.883 14.2928 242.53 9.39453 235.663 9.39453C228.685 9.39453 223.258 14.439 223.258 21.165ZM241.053 20.9457C241.053 18.0579 238.838 15.7915 235.626 15.7915C232.303 15.7915 230.125 18.2041 230.125 21.2746C230.125 24.2721 232.451 26.6116 235.589 26.6116C238.985 26.6116 241.053 24.4549 241.053 20.9457Z" fill="black"/>
<path d="M254.602 24.1816C256.928 24.1816 258.848 26.0825 258.848 28.3854C258.848 30.6883 256.928 32.5891 254.602 32.5891C252.277 32.5891 250.357 30.6883 250.357 28.3854C250.357 26.0825 252.277 24.1816 254.602 24.1816Z" fill="black"/>
<path fill-rule="evenodd" clip-rule="evenodd" d="M36.9804 34.5441C35.6774 36.6942 32.5577 36.6942 31.2547 34.5441L12.9093 4.27127L49.3829 4.27127C51.9915 4.27127 53.5977 7.12279 52.2458 9.35373L36.9804 34.5441Z" fill="#FF7A00"/>
<path fill-rule="evenodd" clip-rule="evenodd" d="M18.3453 34.5441C19.6483 36.6942 22.7681 36.6942 24.0711 34.5441L42.4164 4.27127L5.94285 4.27127C3.33425 4.27127 1.72802 7.12279 3.07997 9.35373L18.3453 34.5441Z" fill="black"/>
<path fill-rule="evenodd" clip-rule="evenodd" d="M12.9094 4.27124H42.4164L27.6639 28.617L12.9094 4.27124Z" fill="black"/>
</svg>
